<svg width="1193" height="253" viewBox="0 0 1193 253" fill="none" xmlns="http://www.w3.org/2000/svg">
<g clip-path="url(#clip0_918_11665)">
<path d="M2 215.113C38.0527 191.207 52.6433 171.68 87.8104 191.207C122.977 210.734 153.38 245.621 168.689 210.734C183.997 175.846 188.891 156.311 193.441 143.189C197.992 130.067 213.682 106.642 229.059 136.706C244.436 166.771 251.353 174.544 261.752 182.875C272.151 191.207 288.687 215.506 315.532 190.285C342.377 165.065 361.755 130.711 388.821 170.262C415.887 209.812 420.812 164.934 425.805 176.627C430.799 188.319 452.026 250.042 465.585 224.644C479.145 199.247 495.561 216.774 510.777 228.884C525.994 240.993 540.638 205.993 555.297 191.207C569.957 176.421 581.226 206.587 605.437 218.279C629.647 229.971 666.227 225.36 685.574 205.336C704.922 185.312 705.598 210.49 711.666 197.146C717.733 183.802 723.795 162.291 746.029 190.285C768.262 218.279 800.169 242.273 809.606 246.343C819.043 250.412 833.664 254.383 856.607 246.343C879.551 238.303 922.108 242.273 931.927 246.343C941.746 250.412 959.009 207.287 972.905 199.247C986.8 191.207 1000.25 199.58 1009.22 182.875C1018.2 166.171 1049.85 62.9096 1057.08 33.3957C1064.3 3.88172 1079.84 -23.1631 1093.04 42.8201C1106.24 108.803 1134.02 61.155 1149.69 98.9307C1165.35 136.706 1174.45 145.272 1191 105.426" stroke="url(#paint0_linear_918_11665)" stroke-width="6" stroke-linecap="round" stroke-linejoin="round"/>
</g>
<defs>
<linearGradient id="paint0_linear_918_11665" x1="2" y1="126.5" x2="1191" y2="126.5" gradientUnits="userSpaceOnUse">
<stop stop-color="#FFFE68"/>
<stop offset="0.260417" stop-color="#53F2A6"/>
<stop offset="0.520833" stop-color="#319EFF"/>
<stop offset="0.713542" stop-color="#F9B34A"/>
<stop offset="0.947917" stop-color="#FFA6F1"/>
</linearGradient>
<clipPath id="clip0_918_11665">
<rect width="1193" height="253" fill="white"/>
</clipPath>
</defs>
</svg>
