<svg width="243" height="75" viewBox="0 0 243 75" fill="none" xmlns="http://www.w3.org/2000/svg">
<path d="M26.2877 74.8268C21.1618 74.8268 16.59 73.6838 12.5724 71.3979C8.62404 69.112 5.54155 65.9256 3.32493 61.8388C1.10831 57.7519 0 53.0415 0 47.7078C0 42.3741 1.10831 37.6637 3.32493 33.5768C5.54155 29.49 8.62404 26.3036 12.5724 24.0177C16.59 21.7318 21.1618 20.5888 26.2877 20.5888C31.4137 20.5888 35.9508 21.7318 39.8992 24.0177C43.9168 26.3036 47.0339 29.49 49.2505 33.5768C51.4672 37.6637 52.5755 42.3741 52.5755 47.7078C52.5755 53.0415 51.4672 57.7519 49.2505 61.8388C47.0339 65.9256 43.9168 69.112 39.8992 71.3979C35.9508 73.6838 31.4137 74.8268 26.2877 74.8268ZM26.2877 67.2418C29.7512 67.2418 32.799 66.4105 35.4313 64.7481C38.1328 63.0856 40.2109 60.7651 41.6655 57.7865C43.1202 54.8079 43.8475 51.4483 43.8475 47.7078C43.8475 43.9673 43.1202 40.6077 41.6655 37.6291C40.2109 34.6505 38.1328 32.33 35.4313 30.6675C32.799 29.0051 29.7512 28.1738 26.2877 28.1738C22.8243 28.1738 19.7418 29.0051 17.0403 30.6675C14.408 32.33 12.3646 34.6505 10.9099 37.6291C9.45527 40.6077 8.72794 43.9673 8.72794 47.7078C8.72794 51.4483 9.45527 54.8079 10.9099 57.7865C12.3646 60.7651 14.408 63.0856 17.0403 64.7481C19.7418 66.4105 22.8243 67.2418 26.2877 67.2418Z" fill="#FBFBFC"/>
<path d="M59.0354 21.2123V15.2897C59.0354 10.5794 60.109 7.11594 62.2564 4.89932C64.473 2.61343 68.0058 1.47049 72.8546 1.47049H82.6216V9.2633H73.3741C71.2961 9.2633 69.8068 9.71355 68.9063 10.614C68.0058 11.5145 67.5555 13.0038 67.5555 15.0819V21.2123H82.5177V29.0051H67.5555V74.2033H59.0354V29.0051H49.4762V21.2123H59.0354Z" fill="#FBFBFC"/>
<path d="M82.0428 15.2897C82.0428 10.5794 83.1165 7.11594 85.2638 4.89932C87.4805 2.61343 91.0132 1.47049 95.862 1.47049H105.629V9.2633H96.3816C94.3035 9.2633 92.8142 9.71355 91.9137 10.614C91.0132 11.5145 90.5629 13.0038 90.5629 15.0819V21.2123H105.525V29.0051H90.5629V74.2033H82.0428V15.2897Z" fill="#FBFBFC"/>
<path d="M111.681 56.7475C111.82 59.9338 113.205 62.5314 115.838 64.5403C118.539 66.5491 122.003 67.5535 126.228 67.5535C129.969 67.5535 132.982 66.8261 135.268 65.3715C137.623 63.8476 138.8 61.8734 138.8 59.449C138.8 57.3709 138.246 55.7777 137.138 54.6694C136.03 53.5611 134.575 52.7991 132.774 52.3835C131.042 51.9679 128.549 51.5522 125.293 51.1366C120.721 50.5825 116.981 49.8551 114.071 48.9546C111.162 48.0541 108.807 46.6341 107.006 44.6946C105.205 42.6858 104.304 39.9496 104.304 36.4862C104.304 33.369 105.17 30.5983 106.902 28.1738C108.703 25.7494 111.127 23.8791 114.175 22.563C117.223 21.1776 120.652 20.4849 124.462 20.4849C130.696 20.4849 135.753 21.9396 139.632 24.8489C143.58 27.7582 145.762 31.9144 146.178 37.3174H137.657C137.311 34.5466 135.96 32.2607 133.605 30.4597C131.25 28.6587 128.306 27.7582 124.773 27.7582C121.171 27.7582 118.262 28.5202 116.045 30.0441C113.829 31.4988 112.72 33.4383 112.72 35.8627C112.72 37.6637 113.24 39.0491 114.279 40.0189C115.318 40.9887 116.634 41.6467 118.227 41.9931C119.89 42.3394 122.384 42.7204 125.708 43.136C130.35 43.6902 134.159 44.4521 137.138 45.4219C140.186 46.3917 142.61 47.9502 144.411 50.0976C146.281 52.2449 147.217 55.1543 147.217 58.8255C147.217 62.0119 146.281 64.8173 144.411 67.2418C142.541 69.6662 140.013 71.5365 136.826 72.8526C133.64 74.1687 130.107 74.8268 126.228 74.8268C119.301 74.8268 113.725 73.2336 109.499 70.0472C105.343 66.8608 103.231 62.4275 103.161 56.7475H111.681Z" fill="#FBFBFC"/>
<path d="M196.262 21.2123V74.2033H188.885L187.742 67.1379C183.724 72.2638 178.079 74.8268 170.805 74.8268C164.502 74.8268 159.445 72.8872 155.635 69.0081C151.825 65.1291 149.921 59.0333 149.921 50.721V21.2123H158.441V50.2015C158.441 55.6738 159.618 59.8646 161.973 62.7739C164.398 65.6139 167.827 67.034 172.26 67.034C177.109 67.034 180.884 65.3022 183.585 61.8388C186.356 58.3753 187.742 53.665 187.742 47.7078V21.2123H196.262Z" fill="#FBFBFC"/>
<path d="M205.902 0.743164C207.495 0.743164 208.811 1.26268 209.851 2.30172C210.89 3.34076 211.409 4.65688 211.409 6.25008C211.409 7.84327 210.89 9.15939 209.851 10.1984C208.811 11.2375 207.495 11.757 205.902 11.757C204.309 11.757 202.993 11.2375 201.954 10.1984C200.915 9.15939 200.395 7.84327 200.395 6.25008C200.395 4.65688 200.915 3.34076 201.954 2.30172C202.993 1.26268 204.309 0.743164 205.902 0.743164ZM201.642 21.2123H210.162V74.2033H201.642V21.2123Z" fill="#FBFBFC"/>
<path d="M219.133 29.0051H209.574V21.2123H219.133V6.35398H227.653V21.2123H241.057V29.0051H227.653V60.2802C227.653 62.4968 228.069 64.09 228.9 65.0598C229.8 65.9603 231.324 66.4105 233.472 66.4105H242.719V74.2033H232.952C227.965 74.2033 224.397 73.095 222.25 70.8784C220.172 68.6618 219.133 65.1637 219.133 60.3841V29.0051Z" fill="#FBFBFC"/>
</svg>
